name N:\Shared_Data\HIL\Data Collection\CoPD-X-MoreData\processed\iteration012\grf0012.mot
datacolumns 19
datarows 62
range 2325.261148 2325.36281
endheader
time	ground_force1_vx	ground_force1_vy	ground_force1_vz	ground_force1_px	ground_force1_py	ground_force1_pz	ground_force2_vx	ground_force2_vy	ground_force2_vz	ground_force2_px	ground_force2_py	ground_force2_pz	ground_torque1_x	ground_torque1_y	ground_torque1_z	ground_torque2_x	ground_torque2_y	ground_torque2_z	
2325.261148	-2.289754781	3.012745316	-2.184137829	7.564637644	0	0.1102408208	-50.28593687	791.6431441	-62.25360718	7.457888519	0	-0.04825673021	0	-0.240954027	0	0	-0.9266302581	0	
2325.262806	-3.086147179	4.839477022	-3.072696645	7.590336818	0	0.1166345711	-50.44175817	790.3457257	-62.24484352	7.458811546	0	-0.04826700396	0	-0.422046942	0	0	-0.8639469929	0	
2325.264474	-3.934031844	7.027269539	-4.057658563	7.607159589	0	0.1206988343	-50.60371103	788.961754	-62.21020412	7.459740377	0	-0.04827399784	0	-0.6345302147	0	0	-0.8070026842	0	
2325.266143	-4.805130377	9.569633481	-5.116439081	7.619949625	0	0.123704705	-50.77270686	787.4914122	-62.14915628	7.460674873	0	-0.04827754629	0	-0.8784931707	0	0	-0.7559958941	0	
2325.267811	-5.669092442	12.4506486	-6.22321996	7.630558238	0	0.1261379932	-50.94963292	785.9348971	-62.06120303	7.461614924	0	-0.04827748231	0	-1.151902146	0	0	-0.7111130318	0	
2325.269478	-6.495748293	15.6471435	-7.350970761	7.639841962	0	0.1282234412	-51.13534832	784.2924105	-61.94588441	7.462560445	0	-0.04827363803	0	-1.451478983	0	0	-0.6725277317	0	
2325.271141	-7.25727273	19.13136344	-8.473492863	7.648245497	0	0.1300777042	-51.33067999	782.5641503	-61.80277861	7.463511374	0	-0.04826584542	0	-1.773193722	0	0	-0.6404002482	0	
2325.27281	-7.929984948	22.873743	-9.567219286	7.656016417	0	0.1317656978	-51.53641866	780.7503017	-61.63150316	7.464467676	0	-0.04825393692	0	-2.11266853	0	0	-0.6148768714	0	
2325.274475	-8.495604718	26.84545544	-10.61258248	7.663297957	0	0.1333249505	-51.75331491	778.8510282	-61.43171594	7.465429334	0	-0.0482377462	0	-2.465532589	0	0	-0.5960893667	0	
2325.276149	-8.941895582	31.02051086	-11.59485932	7.670174231	0	0.1347774749	-51.98207531	776.8664631	-61.20311625	7.466396352	0	-0.04821710885	0	-2.827719798	0	0	-0.5841544409	0	
2325.277811	-9.26271697	35.3772765	-12.50448642	7.6766945	0	0.1361361436	-52.22335851	774.7967012	-60.94544575	7.467368749	0	-0.04819186314	0	-3.19569575	0	0	-0.5791732383	0	
2325.279474	-9.457569957	39.89937963	-13.33689938	7.682887283	0	0.1374083998	-52.47777157	772.64179	-60.65848932	7.468346562	0	-0.04816185082	0	-3.566605441	0	0	-0.5812308693	0	
2325.281144	-9.530757984	44.57602114	-14.09198843	7.688769126	0	0.1385985665	-52.74586627	770.4017227	-60.342076	7.469329836	0	-0.0481269179	0	-3.938340557	0	0	-0.5903959746	0	
2325.282814	-9.490298689	49.40177628	-14.77328212	7.694350321	0	0.1397093561	-53.02813552	768.0764298	-59.99607967	7.470318627	0	-0.04808691537	0	-4.309532252	0	0	-0.6067203254	0	
2325.28448	-9.34672082	54.37598963	-15.38697477	7.69963873	0	0.1407428797	-53.32500998	765.6657724	-59.62041986	7.471312998	0	-0.04804170006	0	-4.679481149	0	0	-0.6302384625	0	
2325.286143	-9.11186572	59.50188536	-15.94090556	7.704642309	0	0.1417013166	-53.63685467	763.1695355	-59.21506239	7.472313015	0	-0.04799113532	0	-5.048040222	0	0	-0.6609673747	0	
2325.287815	-8.797790445	64.78551456	-16.44358119	7.709370673	0	0.1425873278	-53.9639658	760.587422	-58.78001997	7.473318745	0	-0.04793509184	0	-5.415468188	0	0	-0.6989062173	0	
2325.289478	-8.415843066	70.23465166	-16.90331316	7.713835913	0	0.143404271	-54.30656769	757.9190469	-58.31535273	7.474330252	0	-0.04787344834	0	-5.782271036	0	0	-0.7440360711	0	
2325.291142	-7.97595347	75.85773481	-17.32751812	7.718052809	0	0.1441562569	-54.66480989	755.1639325	-57.82116873	7.475347598	0	-0.04780609227	0	-6.149047606	0	0	-0.7963197423	0	
2325.292808	-7.486157362	81.6629236	-17.72220742	7.722038601	0	0.1448480846	-55.0387644	752.3215043	-57.29762434	7.476370833	0	-0.04773292049	0	-6.516352098	0	0	-0.8557016032	0	
2325.294473	-6.952349188	87.65732444	-18.09167197	7.72581243	0	0.145485091	-55.42842308	749.3910874	-56.74492455	7.4774	0	-0.04765383986	0	-6.884582618	0	0	-0.9221074749	0	
2325.29614	-6.378242249	93.84641126	-18.43835187	7.729394599	0	0.1460729508	-55.83369521	746.3719036	-56.16332322	7.478435126	0	-0.04756876786	0	-7.253900825	0	0	-0.9954445514	0	
2325.297813	-5.765502052	100.2336488	-18.76286777	7.732805761	0	0.1466174572	-56.25440531	743.2630696	-55.55312327	7.479476225	0	-0.04747763309	0	-7.624184002	0	0	-1.075601368	0	
2325.299482	-5.114011714	106.8203093	-19.06418265	7.736066137	0	0.1471243095	-56.69029107	740.063596	-54.91467672	7.480523291	0	-0.04738037574	0	-7.995007713	0	0	-1.162447813	0	
2325.30114	-4.422225696	113.6054592	-19.33985851	7.739194831	0	0.1475989284	-57.14100157	736.7723867	-54.24838466	7.481576297	0	-0.04727694803	0	-8.365654919	0	0	-1.255835188	0	
2325.302812	-3.687569543	120.5860858	-19.58637184	7.742209302	0	0.1480463107	-57.60609567	733.3882399	-53.55469715	7.482635194	0	-0.04716731451	0	-8.735146003	0	0	-1.355596317	0	
2325.304479	-2.906847701	127.7573276	-19.79945417	7.74512499	0	0.1484709279	-58.08504066	729.909849	-52.834113	7.483699908	0	-0.0470514524	0	-9.102283541	0	0	-1.461545707	0	
2325.30614	-2.076628009	135.1127724	-19.97442828	7.747955124	0	0.1488766706	-58.57721124	726.335806	-52.08717942	7.484770339	0	-0.04692935175	0	-9.465705734	0	0	-1.573479764	0	
2325.30781	-1.193579144	142.6447872	-20.10651696	7.750710668	0	0.149266832	-59.08188866	722.6646038	-51.31449158	7.485846359	0	-0.04680101562	0	-9.823942976	0	0	-1.691177071	0	
2325.309477	-0.2547453227	150.3448524	-20.19110713	7.753400397	0	0.1496441249	-59.59826027	718.894641	-50.51669206	7.48692781	0	-0.04666646017	0	-10.17547294	0	0	-1.814398728	0	
2325.311148	0.7422497522	158.2038733	-20.22395938	7.756031063	0	0.1500107238	-60.12541933	715.0242271	-49.69447023	7.488014503	0	-0.0465257146	0	-10.51877059	0	0	-1.942888756	0	
2325.312808	1.799070924	166.2124524	-20.20135852	7.758607631	0	0.1503683236	-60.66236521	711.0515882	-48.84856137	7.489106219	0	-0.04637882113	0	-10.85235074	0	0	-2.076374573	0	
2325.314473	2.916607218	174.3611116	-20.12020624	7.761133538	0	0.1507182082	-61.20800387	706.9748746	-47.97974589	7.490202706	0	-0.04622583487	0	-11.17480166	0	0	-2.214567543	0	
2325.316144	4.094966557	182.6404577	-19.9780609	7.763610976	0	0.1510613218	-61.76114881	702.7921678	-47.08884822	7.491303679	0	-0.04606682358	0	-11.48480938	0	0	-2.357163594	0	
2325.317806	5.333518323	191.041293	-19.77313265	7.766041158	0	0.1513983386	-62.32052235	698.5014899	-46.17673575	7.492408823	0	-0.04590186744	0	-11.78117304	0	0	-2.503843916	0	
2325.31948	6.630971223	199.5546744	-19.50424344	7.76842457	0	0.1517297272	-62.88475738	694.1008128	-45.24431757	7.493517787	0	-0.04573105869	0	-12.06281213	0	0	-2.654275728	0	
2325.321145	7.985473756	208.1719282	-19.17076248	7.770761188	0	0.1520558068	-63.45239943	689.5880688	-44.29254312	7.49463019	0	-0.04555450127	0	-12.32876718	0	0	-2.808113118	0	
2325.322814	9.394725512	216.8846321	-18.77252725	7.773050663	0	0.1523767957	-64.02190931	684.9611613	-43.32240073	7.49574562	0	-0.04537231034	0	-12.5781953	0	0	-2.964997952	0	
2325.324482	10.85608905	225.6845712	-18.30975915	7.775292471	0	0.1526928487	-64.59166607	680.2179773	-42.33491607	7.496863631	0	-0.04518461185	0	-12.81036243	0	0	-3.12456085	0	
2325.326143	12.3666942	234.5636815	-17.78298159	7.77748602	0	0.1530040867	-65.15997044	675.3563994	-41.33115046	7.497983751	0	-0.04499154194	0	-13.02463369	0	0	-3.286422213	0	
2325.327815	13.92352887	243.513987	-17.19294625	7.779630739	0	0.153310617	-65.72504876	670.3743196	-40.31219913	7.499105475	0	-0.04479324638	0	-13.22046339	0	0	-3.450193311	0	
2325.329474	15.52351266	252.5275409	-16.54057156	7.781726123	0	0.1536125473	-66.28505722	665.2696528	-39.2791893	7.500228274	0	-0.04458987995	0	-13.39738576	0	0	-3.615477409	0	
2325.331143	17.16355178	261.5963742	-15.82689579	7.783771765	0	0.1539099922	-66.83808659	660.0403517	-38.23327825	7.501351589	0	-0.0443816058	0	-13.55500713	0	0	-3.781870938	0	
2325.33281	18.84057541	270.7124585	-15.05304497	7.785767362	0	0.1542030765	-67.38216741	654.6844215	-37.17565121	7.50247484	0	-0.0441685947	0	-13.69300034	0	0	-3.948964688	0	
2325.334474	20.55155508	279.8676825	-14.22021525	7.787712716	0	0.1544919337	-67.91527537	649.1999357	-36.1075192	7.503597422	0	-0.04395102435	0	-13.81110118	0	0	-4.116345026	0	
2325.336141	22.29350989	289.0538457	-13.32966773	7.789607719	0	0.1547767028	-68.43533728	643.5850522	-35.03011675	7.504718709	0	-0.04372907862	0	-13.90910719	0	0	-4.283595126	0	
2325.337807	24.06350047	298.2626664	-12.38273336	7.791452333	0	0.1550575236	-68.94023717	637.838029	-33.94469954	7.505838056	0	-0.04350294675	0	-13.98687834	0	0	-4.450296203	0	
2325.339476	25.85861544	307.4858037	-11.38082519	7.793246574	0	0.1553345315	-69.42782282	631.9572412	-32.85254192	7.506954799	0	-0.04327282256	0	-14.04433918	0	0	-4.616028752	0	
2325.341141	27.67595352	316.7148901	-10.32545493	7.794990489	0	0.1556078523	-69.89591254	625.9411975	-31.75493437	7.508068262	0	-0.04303890356	0	-14.08148213	0	0	-4.780373768	0	
2325.342807	29.5126044	325.9415722	-9.218251388	7.796684142	0	0.1558775981	-70.34230216	619.7885568	-30.6531809	7.509177753	0	-0.04280139018	0	-14.09837118	0	0	-4.942913964	0	
2325.344478	31.36563098	335.157557	-8.060978146	7.798327602	0	0.156143863	-70.76477232	613.4981447	-29.54859629	7.510282569	0	-0.04256048483	0	-14.09514557	0	0	-5.103234965	0	
2325.346145	33.23205474	344.3546603	-6.8555488	7.799920928	0	0.1564067214	-71.16109595	607.0689699	-28.44250339	7.511382	0	-0.04231639106	0	-14.0720231	0	0	-5.26092648	0	
2325.347811	35.10884577	353.5248541	-5.604038263	7.801464174	0	0.1566662259	-71.52904597	600.5002401	-27.33623028	7.512475328	0	-0.04206931267	0	-14.02930248	0	0	-5.415583447	0	
2325.349478	36.99291798	362.6603131	-4.308689318	7.802957379	0	0.1569224071	-71.86640323	593.791377	-26.23110748	7.513561832	0	-0.04181945288	0	-13.96736471	0	0	-5.56680716	0	
2325.351143	38.88112969	371.753456	-2.971914035	7.804400577	0	0.1571752744	-72.17096461	586.9420317	-25.1284651	7.514640788	0	-0.04156701342	0	-13.88667304	0	0	-5.71420635	0	
2325.352811	40.77028942	380.7969826	-1.59629012	7.805793799	0	0.1574248163	-72.44055144	579.952098	-24.02963004	7.515711474	0	-0.04131219377	0	-13.7877717	0	0	-5.857398253	0	
2325.354477	42.65716607	389.7839045	-0.1845525709	7.807137083	0	0.1576710032	-72.67301807	572.8217261	-22.93592318	7.51677317	0	-0.04105519037	0	-13.67128327	0	0	-5.996009633	0	
2325.356139	44.53850269	398.7075709	1.260418697	7.808430481	0	0.1579137885	-72.86626078	565.551334	-21.8486567	7.517825162	0	-0.04079619586	0	-13.53790476	0	0	-6.12967778	0	
2325.357805	46.41103285	407.561688	2.735614478	7.809674073	0	0.1581531118	-73.01822693	558.1416194	-20.76913142	7.518866742	0	-0.0405353985	0	-13.38840268	0	0	-6.258051478	0	
2325.359473	48.27149866	416.3403337	4.237914272	7.810867972	0	0.1583889004	-73.12692442	550.5935694	-19.6986342	7.519897214	0	-0.04027298155	0	-13.22360714	0	0	-6.380791935	0	
2325.361145	50.11666931	425.0379677	5.764105807	7.812012335	0	0.1586210722	-73.19043139	542.9084697	-18.63843549	7.520915893	0	-0.04000912274	0	-13.04440528	0	0	-6.497573696	0	
2325.36281	51.94335946	433.6494374	7.310905289	7.813107375	0	0.1588495376	-73.20690623	535.087913	-17.58978693	7.521922106	0	-0.03974399394	0	-12.85173412	0	0	-6.608085515	0	
